<?xml version="1.0" encoding="utf-8"?>
<!-- Generator: Adobe Illustrator 28.0.0, SVG Export Plug-In . SVG Version: 6.00 Build 0)  -->
<svg version="1.1" id="Capa_1" xmlns="http://www.w3.org/2000/svg" xmlns:xlink="http://www.w3.org/1999/xlink" x="0px" y="0px"
	 viewBox="0 0 231 48" style="enable-background:new 0 0 231 48;" xml:space="preserve">
<style type="text/css">
	.st0{fill:#1F439B;}
	.st1{fill:#FFFFFF;}
	.st2{fill:#F68122;}
</style>
<g>
	<g>
		<path class="st0" d="M44,46.9H2.2c-1.1,0-2-0.9-2-2V3.1c0-1.1,0.9-2,2-2H44c1.1,0,2,0.9,2,2v41.8C46,46,45.1,46.9,44,46.9z"/>
		<path class="st1" d="M27.5,23.8c1.5-0.8,7.4-4.2,7.6-10.3C35.5,6.5,29,6.1,29,6.1h-24v26.8c0,0,4.3-5.8,13.9-8.5
			c-1.5,0.8-7.4,4.2-7.6,10.3c-0.3,7.1,6.1,7.4,6.1,7.4h24V15.3C41.4,15.3,37,21.1,27.5,23.8z"/>
		<circle class="st2" cx="23.1" cy="24.1" r="3.7"/>
	</g>
	<g>
		<path class="st1" d="M76.7,13.4c-1.7-0.8-4-1.1-6.6-1.1c-2,0-3.7,0.2-5.2,0.7c-1.5,0.5-2.7,1.2-3.6,2c-0.9,0.9-1.4,1.7-1.5,2.7
			c-0.2,0.9-0.3,2.3-0.3,4.1v7.5c0,2.5,0.3,4.4,0.8,5.6c0.6,1.2,1.7,2.2,3.4,2.9c1.7,0.7,3.9,1.1,6.6,1.1c2.6,0,4.7-0.4,6.5-1.2
			c1.8-0.8,2.9-1.8,3.4-2.9c0.5-1.1,0.8-3,0.8-5.6v-1h-9.1v3.2c0,1.4-0.1,2.3-0.3,2.7c-0.2,0.4-0.7,0.6-1.3,0.6
			c-0.7,0-1.2-0.2-1.4-0.6c-0.2-0.4-0.3-1.2-0.3-2.4V19.7c0-1.3,0.1-2.1,0.3-2.5c0.2-0.4,0.7-0.6,1.4-0.6c0.7,0,1.1,0.2,1.3,0.5
			c0.2,0.3,0.3,1.1,0.3,2.4v4.4H81v-2.4c0-2.4-0.3-4.1-0.8-5.3C79.6,15.1,78.5,14.1,76.7,13.4z"/>
		<polygon class="st1" points="92.3,27.6 100.1,27.6 100.1,22.7 92.3,22.7 92.3,17.9 100.5,17.9 100.5,12.8 83.2,12.8 83.2,38.3 
			101.1,38.3 101.1,33.2 92.3,33.2 		"/>
		<path class="st1" d="M120.4,13.4c-1.7-0.8-4-1.1-6.6-1.1c-2,0-3.7,0.2-5.2,0.7c-1.5,0.5-2.7,1.2-3.6,2c-0.9,0.9-1.4,1.7-1.5,2.7
			c-0.2,0.9-0.3,2.3-0.3,4.1v7.5c0,2.5,0.3,4.4,0.8,5.6c0.6,1.2,1.7,2.2,3.4,2.9c1.7,0.7,3.9,1.1,6.6,1.1c2.6,0,4.7-0.4,6.5-1.2
			c1.8-0.8,2.9-1.8,3.4-2.9c0.5-1.1,0.8-3,0.8-5.6v-1h-9.1v3.2c0,1.4-0.1,2.3-0.3,2.7c-0.2,0.4-0.7,0.6-1.3,0.6
			c-0.7,0-1.2-0.2-1.4-0.6c-0.2-0.4-0.3-1.2-0.3-2.4V19.7c0-1.3,0.1-2.1,0.3-2.5c0.2-0.4,0.7-0.6,1.4-0.6c0.7,0,1.1,0.2,1.3,0.5
			c0.2,0.3,0.3,1.1,0.3,2.4v4.4h9.1v-2.4c0-2.4-0.3-4.1-0.8-5.3C123.3,15.1,122.1,14.1,120.4,13.4z"/>
		<polygon class="st1" points="138.5,22.5 135.8,22.5 135.8,13.3 126.7,13.3 126.7,38.9 135.8,38.9 135.8,28.1 138.5,28.1 
			138.5,38.9 147.6,38.9 147.6,13.3 138.5,13.3 		"/>
		<path class="st1" d="M170.8,19.8c0-2.2-0.5-3.8-1.4-4.8c-1-1-2.2-1.6-3.7-1.9c-1.5-0.2-4.4-0.4-8.7-0.4h-6.5v25.5h8.8V26.8
			c1.3,0,2.4,0.2,2.7,0.5c0.3,0.3,0.4,1.2,0.4,2.5v8.5h8.5v-6.7c0-2.1-0.1-3.3-0.2-3.8c-0.2-0.5-0.5-1-1.2-1.5
			c-0.6-0.5-1.8-1-3.6-1.3c2-0.1,3.3-0.5,4-1.2C170.5,23.1,170.8,21.8,170.8,19.8z M162.5,21.6c0,1.1-0.7,1.6-1.1,1.8
			c-0.4,0.2-1.1,0.3-2.2,0.3V18c1.1,0,1.8,0.1,2.2,0.4c0.4,0.3,1,0.9,1,1.8V21.6z"/>
		<rect x="173.8" y="12.8" class="st1" width="8.8" height="25.5"/>
		<polygon class="st1" points="185.9,17.9 192.6,17.9 185,34.6 185,38.3 203.2,38.3 203.2,33.2 195.9,33.2 203.2,17.9 203.2,12.8 
			185.9,12.8 		"/>
		<path class="st1" d="M223.1,12.8h-13.2l-4.6,25.5h9.4l0.5-4.6h3.3l0.5,4.6h9.3L223.1,12.8z M215.1,29.2c0.2-2.3,0.8-5.8,1.7-10.7
			c0.5,4.3,0.9,7.8,1.4,10.7H215.1z"/>
	</g>
	<path class="st2" d="M230.1,46.5H57.5c-0.4,0-0.7-0.3-0.7-0.7v0c0-0.4,0.3-0.7,0.7-0.7h172.6c0.4,0,0.7,0.3,0.7,0.7v0
		C230.8,46.1,230.5,46.5,230.1,46.5z"/>
</g>
</svg>
