<?xml version="1.0" encoding="utf-8"?>
<!-- Generator: Adobe Illustrator 28.0.0, SVG Export Plug-In . SVG Version: 6.00 Build 0)  -->
<svg version="1.1" id="Capa_1" xmlns="http://www.w3.org/2000/svg" xmlns:xlink="http://www.w3.org/1999/xlink" x="0px" y="0px"
	 viewBox="0 0 32 32" style="enable-background:new 0 0 32 32;" xml:space="preserve">
<style type="text/css">
	.st0{fill:#1F439B;}
	.st1{fill:#FFFFFF;}
	.st2{fill:#F68122;}
</style>
<g>
	<path class="st0" d="M30.6,32H1.4C0.6,32,0,31.4,0,30.6V1.4C0,0.6,0.6,0,1.4,0h29.2C31.4,0,32,0.6,32,1.4v29.2
		C32,31.4,31.4,32,30.6,32z"/>
	<path class="st1" d="M19.1,15.9c1.1-0.5,5.1-2.9,5.3-7.2c0.2-4.9-4.3-5.2-4.3-5.2H3.4v18.7c0,0,3-4,9.7-5.9
		c-1.1,0.5-5.1,2.9-5.3,7.2c-0.2,4.9,4.3,5.2,4.3,5.2h16.7V9.9C28.8,9.9,25.7,14,19.1,15.9z"/>
	<circle class="st2" cx="16" cy="16.1" r="2.6"/>
</g>
</svg>
