<?xml version="1.0" encoding="utf-8"?>
<!-- Generator: Adobe Illustrator 28.0.0, SVG Export Plug-In . SVG Version: 6.00 Build 0)  -->
<svg version="1.1" id="Capa_1" xmlns="http://www.w3.org/2000/svg" xmlns:xlink="http://www.w3.org/1999/xlink" x="0px" y="0px"
	 viewBox="0 0 154 32" style="enable-background:new 0 0 154 32;" xml:space="preserve">
<style type="text/css">
	.st0{fill:#1F439B;}
	.st1{fill:#FFFFFF;}
	.st2{fill:#F68122;}
	.st3{fill:#101828;}
</style>
<g>
	<g>
		<path class="st0" d="M29.3,31.3H1.4c-0.7,0-1.3-0.6-1.3-1.3V2.1c0-0.7,0.6-1.3,1.3-1.3h27.9c0.7,0,1.3,0.6,1.3,1.3v27.9
			C30.6,30.7,30,31.3,29.3,31.3z"/>
		<path class="st1" d="M18.3,15.9c1-0.5,4.9-2.8,5.1-6.9c0.2-4.7-4.1-4.9-4.1-4.9h-16v17.9c0,0,2.9-3.9,9.3-5.7
			c-1,0.5-4.9,2.8-5.1,6.9c-0.2,4.7,4.1,4.9,4.1,4.9h16V10.2C27.5,10.2,24.6,14.1,18.3,15.9z"/>
		<circle class="st2" cx="15.3" cy="16.1" r="2.5"/>
	</g>
	<g>
		<path class="st3" d="M51.1,8.9c-1.2-0.5-2.6-0.8-4.4-0.8c-1.3,0-2.5,0.2-3.5,0.5c-1,0.3-1.8,0.8-2.4,1.3c-0.6,0.6-0.9,1.2-1,1.8
			c-0.1,0.6-0.2,1.5-0.2,2.8v5c0,1.7,0.2,2.9,0.6,3.8c0.4,0.8,1.1,1.5,2.3,2c1.2,0.5,2.6,0.7,4.4,0.7c1.7,0,3.2-0.3,4.3-0.8
			c1.2-0.6,1.9-1.2,2.3-1.9c0.3-0.7,0.5-2,0.5-3.8v-0.7h-6.1v2.1c0,0.9-0.1,1.5-0.2,1.8c-0.1,0.3-0.4,0.4-0.9,0.4
			c-0.5,0-0.8-0.1-0.9-0.4c-0.1-0.3-0.2-0.8-0.2-1.6v-7.9c0-0.9,0.1-1.4,0.2-1.7c0.1-0.3,0.5-0.4,1-0.4c0.4,0,0.7,0.1,0.9,0.3
			c0.1,0.2,0.2,0.8,0.2,1.6v3H54v-1.6c0-1.6-0.2-2.8-0.5-3.5C53.1,10.1,52.3,9.4,51.1,8.9z"/>
		<polygon class="st3" points="61.5,18.4 66.7,18.4 66.7,15.2 61.5,15.2 61.5,11.9 67,11.9 67,8.5 55.5,8.5 55.5,25.6 67.4,25.6 
			67.4,22.2 61.5,22.2 		"/>
		<path class="st3" d="M80.2,8.9c-1.2-0.5-2.6-0.8-4.4-0.8c-1.3,0-2.5,0.2-3.5,0.5s-1.8,0.8-2.4,1.3c-0.6,0.6-0.9,1.2-1,1.8
			c-0.1,0.6-0.2,1.5-0.2,2.8v5c0,1.7,0.2,2.9,0.6,3.8c0.4,0.8,1.1,1.5,2.3,2c1.2,0.5,2.6,0.7,4.4,0.7c1.7,0,3.2-0.3,4.3-0.8
			c1.2-0.6,1.9-1.2,2.3-1.9c0.3-0.7,0.5-2,0.5-3.8v-0.7H77v2.1c0,0.9-0.1,1.5-0.2,1.8c-0.1,0.3-0.4,0.4-0.9,0.4
			c-0.5,0-0.8-0.1-0.9-0.4c-0.1-0.3-0.2-0.8-0.2-1.6v-7.9c0-0.9,0.1-1.4,0.2-1.7c0.1-0.3,0.5-0.4,1-0.4c0.4,0,0.7,0.1,0.9,0.3
			c0.1,0.2,0.2,0.8,0.2,1.6v3h6.1v-1.6c0-1.6-0.2-2.8-0.5-3.5C82.2,10.1,81.4,9.4,80.2,8.9z"/>
		<polygon class="st3" points="92.4,15 90.6,15 90.6,8.9 84.5,8.9 84.5,25.9 90.6,25.9 90.6,18.8 92.4,18.8 92.4,25.9 98.5,25.9 
			98.5,8.9 92.4,8.9 		"/>
		<path class="st3" d="M113.9,13.2c0-1.5-0.3-2.5-1-3.2c-0.6-0.7-1.5-1.1-2.5-1.2s-3-0.2-5.8-0.2h-4.3v17h5.9v-7.7
			c0.8,0,1.6,0.1,1.8,0.3c0.2,0.2,0.3,0.8,0.3,1.7v5.7h5.6v-4.5c0-1.4-0.1-2.2-0.2-2.5c-0.1-0.3-0.4-0.6-0.8-1
			c-0.4-0.4-1.2-0.7-2.4-0.9c1.3-0.1,2.2-0.4,2.7-0.8C113.7,15.4,113.9,14.5,113.9,13.2z M108.3,14.4c0,0.8-0.4,1.1-0.7,1.2
			c-0.3,0.1-0.8,0.2-1.4,0.2V12c0.7,0,1.2,0.1,1.5,0.3c0.3,0.2,0.7,0.6,0.7,1.2V14.4z"/>
		<rect x="115.9" y="8.5" class="st3" width="5.9" height="17"/>
		<polygon class="st3" points="124,11.9 128.5,11.9 123.4,23.1 123.4,25.6 135.5,25.6 135.5,22.2 130.6,22.2 135.5,11.9 135.5,8.5 
			124,8.5 		"/>
		<path class="st3" d="M148.8,8.5H140l-3.1,17h6.3l0.4-3.1h2.2l0.3,3.1h6.2L148.8,8.5z M143.5,19.5c0.2-1.5,0.5-3.9,1.2-7.2
			c0.3,2.8,0.6,5.2,0.9,7.2H143.5z"/>
	</g>
	<path class="st2" d="M153.5,31H38.3c-0.3,0-0.5-0.2-0.5-0.5v0c0-0.3,0.2-0.5,0.5-0.5h115.1c0.3,0,0.5,0.2,0.5,0.5v0
		C153.9,30.8,153.7,31,153.5,31z"/>
</g>
</svg>
