<?xml version="1.0" encoding="utf-8"?>
<!-- Generator: Adobe Illustrator 28.0.0, SVG Export Plug-In . SVG Version: 6.00 Build 0)  -->
<svg version="1.1" id="Capa_1" xmlns="http://www.w3.org/2000/svg" xmlns:xlink="http://www.w3.org/1999/xlink" x="0px" y="0px"
	 viewBox="0 0 154 32" style="enable-background:new 0 0 154 32;" xml:space="preserve">
<style type="text/css">
	.st0{fill:#1F439B;}
	.st1{fill:#FFFFFF;}
	.st2{fill:#F68122;}
</style>
<g>
	<g>
		<path class="st0" d="M29.3,31.5H1.4c-0.7,0-1.3-0.6-1.3-1.3V2.3C0.1,1.6,0.7,1,1.4,1h27.9c0.7,0,1.3,0.6,1.3,1.3v27.9
			C30.7,30.9,30.1,31.5,29.3,31.5z"/>
		<path class="st1" d="M18.3,16.1c1-0.5,4.9-2.8,5.1-6.9c0.2-4.7-4.1-4.9-4.1-4.9h-16v17.9c0,0,2.9-3.9,9.3-5.7
			c-1,0.5-4.9,2.8-5.1,6.9c-0.2,4.7,4.1,4.9,4.1,4.9h16V10.4C27.6,10.4,24.7,14.3,18.3,16.1z"/>
		<circle class="st2" cx="15.4" cy="16.3" r="2.5"/>
	</g>
	<g>
		<path class="st1" d="M51.2,9.2c-1.2-0.5-2.6-0.8-4.4-0.8c-1.3,0-2.5,0.2-3.5,0.5c-1,0.3-1.8,0.8-2.4,1.3c-0.6,0.6-0.9,1.2-1,1.8
			c-0.1,0.6-0.2,1.5-0.2,2.8v5c0,1.7,0.2,2.9,0.6,3.8c0.4,0.8,1.1,1.5,2.3,2c1.2,0.5,2.6,0.7,4.4,0.7c1.7,0,3.2-0.3,4.3-0.8
			c1.2-0.6,1.9-1.2,2.3-1.9c0.3-0.7,0.5-2,0.5-3.8V19H48v2.1c0,0.9-0.1,1.5-0.2,1.8c-0.1,0.3-0.4,0.4-0.9,0.4
			c-0.5,0-0.8-0.1-0.9-0.4c-0.1-0.3-0.2-0.8-0.2-1.6v-7.9c0-0.9,0.1-1.4,0.2-1.7c0.1-0.3,0.5-0.4,1-0.4c0.4,0,0.7,0.1,0.9,0.3
			c0.1,0.2,0.2,0.8,0.2,1.6v3H54v-1.6c0-1.6-0.2-2.8-0.5-3.5C53.1,10.3,52.4,9.7,51.2,9.2z"/>
		<polygon class="st1" points="61.6,18.6 66.8,18.6 66.8,15.4 61.6,15.4 61.6,12.2 67,12.2 67,8.8 55.5,8.8 55.5,25.8 67.4,25.8 
			67.4,22.4 61.6,22.4 		"/>
		<path class="st1" d="M80.3,9.2c-1.2-0.5-2.6-0.8-4.4-0.8c-1.3,0-2.5,0.2-3.5,0.5c-1,0.3-1.8,0.8-2.4,1.3c-0.6,0.6-0.9,1.2-1,1.8
			c-0.1,0.6-0.2,1.5-0.2,2.8v5c0,1.7,0.2,2.9,0.6,3.8c0.4,0.8,1.1,1.5,2.3,2c1.2,0.5,2.6,0.7,4.4,0.7c1.7,0,3.2-0.3,4.3-0.8
			c1.2-0.6,1.9-1.2,2.3-1.9c0.3-0.7,0.5-2,0.5-3.8V19h-6.1v2.1c0,0.9-0.1,1.5-0.2,1.8c-0.1,0.3-0.4,0.4-0.9,0.4
			c-0.5,0-0.8-0.1-0.9-0.4c-0.1-0.3-0.2-0.8-0.2-1.6v-7.9c0-0.9,0.1-1.4,0.2-1.7c0.1-0.3,0.5-0.4,1-0.4c0.4,0,0.7,0.1,0.9,0.3
			c0.1,0.2,0.2,0.8,0.2,1.6v3h6.1v-1.6c0-1.6-0.2-2.8-0.5-3.5C82.2,10.3,81.5,9.7,80.3,9.2z"/>
		<polygon class="st1" points="92.4,15.2 90.6,15.2 90.6,9.1 84.5,9.1 84.5,26.2 90.6,26.2 90.6,19 92.4,19 92.4,26.2 98.5,26.2 
			98.5,9.1 92.4,9.1 		"/>
		<path class="st1" d="M114,13.4c0-1.5-0.3-2.5-1-3.2c-0.6-0.7-1.5-1.1-2.5-1.2c-1-0.2-3-0.2-5.8-0.2h-4.3v17h5.9v-7.7
			c0.8,0,1.6,0.1,1.8,0.3c0.2,0.2,0.3,0.8,0.3,1.7v5.7h5.6v-4.5c0-1.4-0.1-2.2-0.2-2.5c-0.1-0.3-0.4-0.6-0.8-1
			c-0.4-0.4-1.2-0.7-2.4-0.9c1.3-0.1,2.2-0.4,2.7-0.8C113.7,15.6,114,14.7,114,13.4z M108.4,14.6c0,0.8-0.4,1.1-0.7,1.2
			c-0.3,0.1-0.8,0.2-1.4,0.2v-3.8c0.7,0,1.2,0.1,1.5,0.3c0.3,0.2,0.7,0.6,0.7,1.2V14.6z"/>
		<rect x="116" y="8.8" class="st1" width="5.9" height="17"/>
		<polygon class="st1" points="124.1,12.2 128.5,12.2 123.5,23.3 123.5,25.8 135.6,25.8 135.6,22.4 130.7,22.4 135.6,12.2 
			135.6,8.8 124.1,8.8 		"/>
		<path class="st1" d="M148.8,8.8H140l-3.1,17h6.3l0.4-3.1h2.2l0.3,3.1h6.2L148.8,8.8z M143.5,19.7c0.2-1.5,0.5-3.9,1.2-7.2
			c0.3,2.8,0.6,5.2,0.9,7.2H143.5z"/>
	</g>
	<path class="st2" d="M153.5,31.2H38.4c-0.3,0-0.5-0.2-0.5-0.5l0,0c0-0.3,0.2-0.5,0.5-0.5h115.1c0.3,0,0.5,0.2,0.5,0.5l0,0
		C154,31,153.8,31.2,153.5,31.2z"/>
</g>
</svg>
